# xmcd
#
# Track frame offsets:
# 150
# 19997
# 36552
# 47850
# 64805
# 84265
# 101297
# 118225
# 136952
# 154997
# 170912
# 186082
# 201485
# 216092
#
# Disc length: 3128 seconds
#
#
# Revision: 5
# Processed by: cddbd v1.5.1PL2 Copyright (c) Steve Scherf et al.
# Submitted via: FreeRIP 2.945 
#
DISCID=d30c360e
DTITLE=Luiz Melodia - Luiz Melodia - BIS - CD 2
DYEAR=2000
DGENRE=MPB
TTITLE0=Ebano
TTITLE1=Juventude transviada
TTITLE2=A voz do morro
TTITLE3=Perola negra
TTITLE4=Me deixa em paz
TTITLE5=Codinome beija-flor
TTITLE6=Morena da novela
TTITLE7=Saco cheio
TTITLE8=Pra que
TTITLE9=Congenito
TTITLE10=Comecar pelo recomeco
TTITLE11=Dores de amores
TTITLE12=Cruel
TTITLE13=Paixao
EXTD=YEAR: 2000
EXTT0=
EXTT1=
EXTT2=
EXTT3=
EXTT4=
EXTT5=
EXTT6=
EXTT7=
EXTT8=
EXTT9=
EXTT10=
EXTT11=
EXTT12=
EXTT13=
PLAYORDER=
